<svg width="24" height="24" viewBox="0 0 24 24" fill="none" xmlns="http://www.w3.org/2000/svg">
<g clip-path="url(#clip0_285_424)">
<path d="M7.443 5.34998C8.082 5.34998 8.673 5.39998 9.213 5.54798C9.754 5.64698 10.197 5.84498 10.59 6.09198C10.984 6.33998 11.279 6.68598 11.475 7.13098C11.672 7.57598 11.771 8.12098 11.771 8.71398C11.771 9.40698 11.623 9.99998 11.279 10.445C10.984 10.891 10.492 11.286 9.902 11.583C10.738 11.831 11.377 12.276 11.771 12.87C12.164 13.463 12.41 14.205 12.41 15.046C12.41 15.739 12.262 16.332 12.016 16.827C11.771 17.322 11.377 17.767 10.934 18.064C10.4528 18.3823 9.92083 18.6163 9.361 18.756C8.771 18.905 8.181 19.004 7.591 19.004H1V5.34998H7.443ZM7.049 10.89C7.59 10.89 8.033 10.742 8.377 10.495C8.721 10.248 8.869 9.80198 8.869 9.25798C8.869 8.96098 8.819 8.66498 8.721 8.46698C8.623 8.26898 8.475 8.11998 8.279 7.97198C8.082 7.87298 7.885 7.77398 7.639 7.72498C7.393 7.67498 7.148 7.67498 6.852 7.67498H4V10.891H7.05L7.049 10.89ZM7.197 16.728C7.492 16.728 7.787 16.678 8.033 16.629C8.279 16.579 8.525 16.481 8.721 16.332C8.92138 16.1872 9.08903 16.0018 9.213 15.788C9.311 15.541 9.41 15.244 9.41 14.898C9.41 14.205 9.213 13.71 8.82 13.364C8.426 13.067 7.885 12.919 7.246 12.919H4V16.729L7.197 16.728ZM16.689 16.678C17.082 17.074 17.672 17.272 18.459 17.272C19 17.272 19.492 17.124 19.885 16.877C20.279 16.58 20.525 16.283 20.623 15.987H23.033C22.639 17.173 22.049 18.014 21.263 18.559C20.475 19.053 19.541 19.35 18.41 19.35C17.6864 19.3522 16.9688 19.2179 16.295 18.954C15.6887 18.7266 15.148 18.3528 14.721 17.866C14.2643 17.4106 13.9267 16.8497 13.738 16.233C13.492 15.59 13.393 14.898 13.393 14.106C13.393 13.364 13.492 12.672 13.738 12.028C13.9749 11.4083 14.3252 10.8383 14.771 10.347C15.2201 9.88582 15.7543 9.51601 16.344 9.25798C17.0007 8.99404 17.7022 8.85957 18.41 8.86198C19.246 8.86198 19.984 9.01098 20.623 9.35698C21.263 9.70298 21.754 10.099 22.147 10.693C22.541 11.237 22.837 11.88 23.033 12.573C23.131 13.265 23.18 13.958 23.131 14.749H16C16 15.541 16.295 16.283 16.689 16.679V16.678ZM19.787 11.484C19.443 11.138 18.902 10.94 18.262 10.94C17.82 10.94 17.475 11.04 17.18 11.188C16.885 11.336 16.689 11.534 16.492 11.732C16.3107 11.9231 16.1905 12.1641 16.147 12.424C16.098 12.672 16.049 12.87 16.049 13.067H20.475C20.377 12.325 20.131 11.831 19.787 11.484ZM15.459 6.28998H20.967V7.62598H15.46V6.28998H15.459Z" fill="black"/>
</g>
<defs>
<clipPath id="clip0_285_424">
<rect width="24" height="24" fill="white"/>
</clipPath>
</defs>
</svg>
