<svg width="24" height="24" viewBox="0 0 24 24" fill="none" xmlns="http://www.w3.org/2000/svg">
<path d="M18.75 18.25V8.25H8.75V7.625C8.75 6.591 9.591 5.75 10.625 5.75H12.5V2H10.625C9.13373 2.00185 7.70406 2.59508 6.64957 3.64957C5.59508 4.70406 5.00185 6.13373 5 7.625V8.25H2.5V12H5V18.25H2.5V22H11.25V18.25H8.75V12H15.035V18.25H12.5V22H21.25V18.25H18.75Z" fill="black"/>
<path d="M16.875 5.75C17.9105 5.75 18.75 4.91053 18.75 3.875C18.75 2.83947 17.9105 2 16.875 2C15.8395 2 15 2.83947 15 3.875C15 4.91053 15.8395 5.75 16.875 5.75Z" fill="black"/>
</svg>
