<svg width="24" height="24" viewBox="0 0 24 24" fill="none" xmlns="http://www.w3.org/2000/svg">
<path d="M17.47 6.06999C16.4271 6.08833 15.4224 6.46519 14.6247 7.1372C13.8271 7.80921 13.2851 8.73539 13.09 9.75999C12.1107 8.23793 11.3436 6.5894 10.81 4.85999H8.55V10.86C8.55 11.4275 8.32454 11.9719 7.92321 12.3732C7.52188 12.7745 6.97756 13 6.41 13C5.84244 13 5.29812 12.7745 4.89679 12.3732C4.49546 11.9719 4.27 11.4275 4.27 10.86V4.85999L2 4.90999V10.91C2.00663 12.0769 2.47656 13.1935 3.30641 14.0139C4.13626 14.8344 5.25805 15.2916 6.425 15.285C7.59195 15.2784 8.70848 14.8084 9.52895 13.9786C10.3494 13.1487 10.8066 12.0269 10.8 10.86V9.85998C11.2798 10.8011 11.8314 11.7037 12.45 12.56L11.07 19.17H13.39L14.39 14.36C15.3168 14.9556 16.3984 15.2651 17.5 15.25C18.712 15.25 19.8744 14.7685 20.7315 13.9115C21.5885 13.0544 22.07 11.892 22.07 10.68C22.07 9.46795 21.5885 8.30555 20.7315 7.44851C19.8744 6.59147 18.712 6.10999 17.5 6.10999L17.47 6.06999ZM17.47 12.9C16.5303 12.8696 15.6298 12.5165 14.92 11.9L15.15 10.99V10.94C15.31 9.93998 15.81 8.33999 17.5 8.33999C17.7963 8.33735 18.0902 8.39327 18.3649 8.50454C18.6395 8.6158 18.8895 8.78022 19.1004 8.98836C19.3113 9.19649 19.479 9.44424 19.594 9.71738C19.7089 9.99052 19.7687 10.2837 19.77 10.58C19.7486 11.18 19.504 11.7503 19.0841 12.1794C18.6643 12.6085 18.0994 12.8655 17.5 12.9H17.47Z" fill="black"/>
</svg>
