<svg width="44" height="73" viewBox="0 0 44 73" fill="none" xmlns="http://www.w3.org/2000/svg">
<path fill-rule="evenodd" clip-rule="evenodd" d="M12.2871 1.14632C10.9789 1.86617 9.4431 2.71296 8.87408 3.02803C8.30484 3.3431 6.07226 4.57595 3.91261 5.76786C1.12028 7.30881 0.0773712 7.98817 0.303439 8.11925C1.07882 8.56888 9.84405 13.4341 19.649 18.8569C22.6391 20.5106 26.0539 22.4207 27.2375 23.1013L29.3894 24.3392L29.4488 32.3148C29.4816 36.7012 29.5421 40.2902 29.5835 40.2902C29.625 40.2902 31.9937 39.0001 34.8474 37.4232C37.7011 35.8463 40.6985 34.1991 41.5083 33.763C42.3181 33.3266 43.2101 32.8295 43.4903 32.6582L44 32.3468V24.1482C44 16.8524 43.9604 15.9353 43.6396 15.8168C43.3229 15.7001 37.9166 12.7179 26.4446 6.33203C18.0994 1.68675 15.5415 0.270568 15.1186 0.0615372C14.746 -0.122671 14.2435 0.0698102 12.2871 1.14632ZM0.054949 32.5225V40.6499L3.73591 42.6762C5.76056 43.7906 8.91893 45.5292 10.7547 46.5398C12.5904 47.5505 14.1436 48.4572 14.2066 48.555C14.3883 48.8376 14.6619 48.6719 7.0771 52.8728C5.89352 53.5282 3.86435 54.6386 2.56797 55.3404C1.27159 56.042 0.171611 56.6538 0.123815 56.6998C-0.0370148 56.8544 -0.0433661 73.0608 0.11769 72.9998C0.205127 72.9665 0.456115 72.8775 0.675614 72.8017C0.894886 72.7261 3.21492 71.4713 5.83123 70.0135C8.44755 68.5555 11.5312 66.8443 12.6835 66.2107L14.7788 65.0584V57.0059C14.7788 49.4264 14.8021 48.9617 15.1752 49.0989C15.6015 49.2554 23.6136 53.3657 29.5835 56.6998L29.4488 65.0584H32.7323C33.4118 65.0584 35.495 65.0584 38.2132 65.0584C41.0447 65.0584 42.2461 65.0584 43.7651 65.0584C43.7651 63.6431 43.7696 48.8467 43.7651 48.708C43.7603 48.5691 42.2569 47.6422 40.4239 46.648C38.5909 45.654 35.766 44.1009 34.1463 43.1968C32.5267 42.2927 30.7938 41.3303 30.2955 41.0582C28.4591 40.055 21.8526 36.3944 19.8755 35.2845C18.7542 34.6551 15.0846 32.6183 11.7208 30.7586C8.35694 28.8987 5.22439 27.1469 4.75979 26.8658C4.29497 26.5847 3.87025 26.3548 3.81588 26.3548C3.76129 26.3548 2.94083 25.9139 1.99261 25.375C1.0444 24.8361 0.220311 24.3951 0.161642 24.3951C0.102973 24.3951 0.054949 28.0525 0.054949 32.5225Z" fill="#D9D9D9"/>
</svg>
